<svg viewBox="0 0 20 20" xmlns="http://www.w3.org/2000/svg"><path fill-rule="evenodd" clip-rule="evenodd" d="M2.03252 3.45528C2.03252 2.67509 2.67509 2.03252 3.45528 2.03252H16.5447C17.3249 2.03252 17.9675 2.67509 17.9675 3.45528V16.5447C17.9675 17.3249 17.3249 17.9675 16.5447 17.9675H3.45528C2.67509 17.9675 2.03252 17.3249 2.03252 16.5447V3.45528ZM3.45528 0C1.55256 0 0 1.55256 0 3.45528V16.5447C0 18.4474 1.55256 20 3.45528 20H16.5447C18.4474 20 20 18.4474 20 16.5447V3.45528C20 1.55256 18.4474 0 16.5447 0H3.45528ZM8.98373 15.6915V11.0163H4.30902V8.98374H8.98373V4.30935H11.0163V8.98374H15.6911V11.0163H11.0163V15.6915H8.98373Z"/></svg>