<svg viewBox="0 0 20 20" xmlns="http://www.w3.org/2000/svg"><path fill-rule="evenodd" clip-rule="evenodd" d="M10 2.02429C5.59511 2.02429 2.02429 5.59511 2.02429 10C2.02429 14.4049 5.59511 17.9757 10 17.9757C14.4049 17.9757 17.9757 14.4049 17.9757 10C17.9757 5.59511 14.4049 2.02429 10 2.02429ZM0 10C0 4.47712 4.47712 0 10 0C15.5229 0 20 4.47712 20 10C20 15.5229 15.5229 20 10 20C4.47712 20 0 15.5229 0 10ZM5.18227 10C5.18227 9.44101 5.63542 8.98785 6.19442 8.98785H8.98785V6.19457C8.98785 5.63558 9.44101 5.18243 10 5.18243C10.559 5.18243 11.0121 5.63558 11.0121 6.19457V8.98785H13.8059C14.3649 8.98785 14.8181 9.44101 14.8181 10C14.8181 10.559 14.3649 11.0121 13.8059 11.0121H11.0121V13.8059C11.0121 14.3649 10.559 14.8181 10 14.8181C9.44101 14.8181 8.98785 14.3649 8.98785 13.8059V11.0121H6.19442C5.63542 11.0121 5.18227 10.559 5.18227 10Z"/></svg>