<svg viewBox="0 0 20 20" xmlns="http://www.w3.org/2000/svg"><path fill-rule="evenodd" clip-rule="evenodd" d="M2.125 5.7572C2.125 5.40214 2.31221 5.0908 2.59331 4.91652L2.57427 4.87025L14.4109 0L15.1631 1.82815L8.0162 4.76877H16.556C17.1019 4.76877 17.5444 5.2113 17.5444 5.7572V16.6394C17.5444 18.49 16.0344 20 14.1838 20H5.48564C3.63503 20 2.125 18.49 2.125 16.6394V5.7572ZM15.5676 6.74562V16.6394C15.5676 17.3982 14.9426 18.0232 14.1838 18.0232H5.48564C4.72682 18.0232 4.10185 17.3982 4.10185 16.6394V6.74562H15.5676ZM6.77139 8.17117V16.5625H8.74824V8.17117H6.77139ZM13.0657 8.17196V16.5633H11.0888V8.17196H13.0657Z"/></svg>