<svg viewBox="0 0 20 14" xmlns="http://www.w3.org/2000/svg"><path fill-rule="evenodd" clip-rule="evenodd" d="M5.02637 0H19.4001C19.7334 0 20 0.295819 20 0.665466V13.3345C20 13.7043 19.7333 14 19.4001 14H5.0042C4.71535 14 4.44882 13.8521 4.27107 13.6056L0.11669 7.61617C-0.0388967 7.36964 -0.0388967 7.04934 0.11669 6.80279L4.27107 0.418992C4.4488 0.147861 4.73752 0 5.02637 0ZM15 8.70496L13.705 10L12 8.29504L10.295 10L9 8.70496L10.705 7L9 5.29504L10.295 4L12 5.70496L13.705 4L15 5.29504L13.2949 7L15 8.70496Z"/></svg>