<svg viewBox="0 0 20 20" xmlns="http://www.w3.org/2000/svg"><path d="M1.5 2C0.671573 2 0 2.67157 0 3.5C0 4.32843 0.671573 5 1.5 5H2C2.82843 5 3.5 4.32843 3.5 3.5C3.5 2.67157 2.82843 2 2 2H1.5Z"/><path d="M6.5 2C5.67157 2 5 2.67157 5 3.5C5 4.32843 5.67157 5 6.5 5H18.5C19.3284 5 20 4.32843 20 3.5C20 2.67157 19.3284 2 18.5 2H6.5Z"/><path d="M5 16.5C5 15.6716 5.67157 15 6.5 15H18.5C19.3284 15 20 15.6716 20 16.5C20 17.3284 19.3284 18 18.5 18H6.5C5.67157 18 5 17.3284 5 16.5Z"/><path d="M5 10C5 9.17157 5.67157 8.5 6.5 8.5H18.5C19.3284 8.5 20 9.17157 20 10C20 10.8284 19.3284 11.5 18.5 11.5H6.5C5.67157 11.5 5 10.8284 5 10Z"/><path d="M0 16.5C0 15.6716 0.671573 15 1.5 15H2C2.82843 15 3.5 15.6716 3.5 16.5C3.5 17.3284 2.82843 18 2 18H1.5C0.671573 18 0 17.3284 0 16.5Z"/><path d="M1.5 8.5C0.671573 8.5 0 9.17157 0 10C0 10.8284 0.671573 11.5 1.5 11.5H2C2.82843 11.5 3.5 10.8284 3.5 10C3.5 9.17157 2.82843 8.5 2 8.5H1.5Z"/></svg>