<svg viewBox="0 0 20 20" xmlns="http://www.w3.org/2000/svg"><path d="M1.00014 16.9761C1.00014 17.5354 1.45278 17.988 2.01201 17.988C2.57127 17.988 3.02388 17.5354 3.02388 16.9761V15.7247C4.75453 17.775 7.31081 18.9732 10.0001 18.9732C14.5266 18.9732 18.3343 15.6182 18.9201 11.1182C19 10.559 18.6272 10.0798 18.068 9.9999C17.5087 9.92002 17.0295 10.2928 16.9496 10.8521V10.8786C16.497 14.3667 13.5414 16.9762 10.0267 16.9762C7.71016 16.9762 5.52666 15.8578 4.19537 13.994H6.0059C6.56516 13.994 7.01777 13.5414 7.01777 12.9821C7.01777 12.4229 6.56514 11.9703 6.0059 11.9703H2.01187C1.45261 11.9703 1 12.4229 1 12.9821L1.00014 16.9761Z"/><path d="M12.9822 6.99105C12.9822 7.5503 13.4349 8.00291 13.9941 8.00291H17.9881C18.5474 8.00291 19 7.55028 19 6.99105V2.99702C19 2.43776 18.5474 1.98515 17.9881 1.98515C17.4289 1.98515 16.9763 2.43778 16.9763 2.99702V4.24848C15.2456 2.19816 12.6893 1 10 1C5.47351 1 1.63919 4.38166 1.08002 8.85493C1.02672 9.41419 1.42623 9.89337 1.98529 9.94668C2.51778 9.99998 2.99716 9.62721 3.07704 9.09452C3.50311 5.60645 6.48528 2.97034 10 2.97034C12.3165 2.97034 14.5 4.08867 15.8313 5.97922H13.994C13.4348 6.00597 12.9821 6.4586 12.9821 6.99109L12.9822 6.99105Z"/></svg>