<svg viewBox="0 0 15 20" xmlns="http://www.w3.org/2000/svg"><path fill-rule="evenodd" clip-rule="evenodd" d="M5 6H3C1.34315 6 0 7.34315 0 9V17C0 18.6569 1.34315 20 3 20H12C13.6569 20 15 18.6569 15 17V9C15 7.34315 13.6569 6 12 6H10V7H12C13.1046 7 14 7.89543 14 9V17C14 18.1046 13.1046 19 12 19H3C1.89543 19 1 18.1046 1 17V9C1 7.89543 1.89543 7 3 7H5V6Z"/><path fill-rule="evenodd" clip-rule="evenodd" d="M7.49998 0L11.1213 3.62132L10.4142 4.32843L7.99998 1.91421V13H6.99998V1.91421L4.58577 4.32843L3.87866 3.62132L7.49998 0Z"/></svg>