<?xml version="1.0" encoding="UTF-8"?><!DOCTYPE svg PUBLIC "-//W3C//DTD SVG 1.1//EN" "http://www.w3.org/Graphics/SVG/1.1/DTD/svg11.dtd"><svg xmlns="http://www.w3.org/2000/svg" xmlns:xlink="http://www.w3.org/1999/xlink"><defs/><symbol id="add-item" viewBox="0 0 20 20"><path fill-rule="evenodd" clip-rule="evenodd" d="M10 2.02429C5.59511 2.02429 2.02429 5.59511 2.02429 10C2.02429 14.4049 5.59511 17.9757 10 17.9757C14.4049 17.9757 17.9757 14.4049 17.9757 10C17.9757 5.59511 14.4049 2.02429 10 2.02429ZM0 10C0 4.47712 4.47712 0 10 0C15.5229 0 20 4.47712 20 10C20 15.5229 15.5229 20 10 20C4.47712 20 0 15.5229 0 10ZM5.18227 10C5.18227 9.44101 5.63542 8.98785 6.19442 8.98785H8.98785V6.19457C8.98785 5.63558 9.44101 5.18243 10 5.18243C10.559 5.18243 11.0121 5.63558 11.0121 6.19457V8.98785H13.8059C14.3649 8.98785 14.8181 9.44101 14.8181 10C14.8181 10.559 14.3649 11.0121 13.8059 11.0121H11.0121V13.8059C11.0121 14.3649 10.559 14.8181 10 14.8181C9.44101 14.8181 8.98785 14.3649 8.98785 13.8059V11.0121H6.19442C5.63542 11.0121 5.18227 10.559 5.18227 10Z"/></symbol><symbol id="add-to-home" viewBox="0 0 20 20"><path fill-rule="evenodd" clip-rule="evenodd" d="M2.03252 3.45528C2.03252 2.67509 2.67509 2.03252 3.45528 2.03252H16.5447C17.3249 2.03252 17.9675 2.67509 17.9675 3.45528V16.5447C17.9675 17.3249 17.3249 17.9675 16.5447 17.9675H3.45528C2.67509 17.9675 2.03252 17.3249 2.03252 16.5447V3.45528ZM3.45528 0C1.55256 0 0 1.55256 0 3.45528V16.5447C0 18.4474 1.55256 20 3.45528 20H16.5447C18.4474 20 20 18.4474 20 16.5447V3.45528C20 1.55256 18.4474 0 16.5447 0H3.45528ZM8.98373 15.6915V11.0163H4.30902V8.98374H8.98373V4.30935H11.0163V8.98374H15.6911V11.0163H11.0163V15.6915H8.98373Z"/></symbol><symbol id="clear" viewBox="0 0 20 20"><path fill-rule="evenodd" clip-rule="evenodd" d="M2.125 5.7572C2.125 5.40214 2.31221 5.0908 2.59331 4.91652L2.57427 4.87025L14.4109 0L15.1631 1.82815L8.0162 4.76877H16.556C17.1019 4.76877 17.5444 5.2113 17.5444 5.7572V16.6394C17.5444 18.49 16.0344 20 14.1838 20H5.48564C3.63503 20 2.125 18.49 2.125 16.6394V5.7572ZM15.5676 6.74562V16.6394C15.5676 17.3982 14.9426 18.0232 14.1838 18.0232H5.48564C4.72682 18.0232 4.10185 17.3982 4.10185 16.6394V6.74562H15.5676ZM6.77139 8.17117V16.5625H8.74824V8.17117H6.77139ZM13.0657 8.17196V16.5633H11.0888V8.17196H13.0657Z"/></symbol><symbol id="cog" viewBox="0 0 20 20"><path d="M9.98621 12.9316C11.6461 12.9316 12.9847 11.5929 12.9847 9.93302C12.9847 8.27313 11.6461 6.93448 9.98621 6.93448C8.32632 6.93448 6.98767 8.27313 6.98767 9.93302C6.98767 11.5929 8.32632 12.9316 9.98621 12.9316ZM9.98621 8.91559C10.5485 8.91559 11.0036 9.37071 11.0036 9.93302C11.0036 10.4953 10.5485 10.9504 9.98621 10.9504C9.4239 10.9504 8.96878 10.4953 8.96878 9.93302C8.96878 9.37071 9.4239 8.91559 9.98621 8.91559Z"/><path d="M0.936914 12.2355C0.535394 12.7978 0.508502 13.5474 0.829903 14.1632L1.76706 15.7696C2.14187 16.3854 2.81121 16.7068 3.50721 16.6532C3.64112 16.6532 3.90873 16.5996 4.28353 16.5461C4.89927 16.4391 5.8631 16.2516 5.8631 16.2516L6.61274 16.68C6.61274 16.68 6.96085 17.7242 7.14816 18.2062C7.28206 18.5543 7.38907 18.8219 7.46938 18.9559C7.76389 19.5716 8.37962 20 9.07586 20H10.9499C11.646 19.9733 12.2619 19.5716 12.5564 18.9292C12.61 18.8222 12.717 18.5544 12.8509 18.2063C13.0651 17.6172 13.3863 16.6801 13.3863 16.6801L14.1093 16.2517C14.1093 16.2517 15.207 16.4659 15.6888 16.5462C15.903 16.5729 16.1172 16.5998 16.2778 16.6265L16.4384 16.6532H16.492C17.1881 16.7068 17.8574 16.3854 18.2055 15.7964L19.1427 14.1899C19.4908 13.5742 19.4372 12.8245 19.0357 12.2622C18.9554 12.1552 18.7947 11.941 18.5538 11.6465C18.1523 11.1647 17.5097 10.4418 17.5097 10.4418V10.0133V9.58493C17.5097 9.58493 18.2326 8.75501 18.5538 8.38018C18.7948 8.08567 18.9554 7.87145 19.0626 7.73758C19.4641 7.17525 19.491 6.42565 19.1696 5.80992L18.2324 4.20344C17.8843 3.61443 17.215 3.26629 16.519 3.31993C16.3851 3.31993 16.1174 3.37353 15.7426 3.42694C15.1269 3.53395 14.1631 3.72145 14.1631 3.72145L13.4134 3.29304C13.4134 3.29304 13.1189 2.35589 12.878 1.7938C12.7441 1.44569 12.6371 1.17806 12.5568 1.04415C12.2623 0.428417 11.6465 0 10.9503 0H9.07624C8.38018 0.0267057 7.76431 0.428412 7.46976 1.07083C7.41616 1.17784 7.30915 1.44564 7.17524 1.79375C6.96103 2.38276 6.63983 3.29299 6.63983 3.29299L5.91691 3.72141C5.91691 3.72141 4.81916 3.5072 4.31043 3.42689C3.93561 3.37329 3.66783 3.34659 3.50719 3.31988C2.81114 3.26628 2.14181 3.58769 1.79371 4.17672L0.856556 5.7832C0.508449 6.39893 0.562043 7.14858 0.963567 7.71086C1.04387 7.81787 1.20448 8.03208 1.44539 8.32659C1.84691 8.80841 2.48954 9.53133 2.48954 9.53133V9.95974V10.3882C2.48954 10.3882 1.76662 11.2181 1.44539 11.5929C1.17795 11.8874 1.01716 12.1016 0.936843 12.2355H0.936914ZM4.49773 10.6023C4.44413 10.1472 4.44413 9.71883 4.49773 9.26369L4.55133 8.80857L4.23011 8.46046C3.74829 7.95173 3.3466 7.46991 2.97178 7.04149C2.83787 6.88088 2.73086 6.74697 2.65056 6.63997C2.59696 6.55966 3.34661 5.27459 3.42688 5.27459C3.58749 5.3013 3.7481 5.32819 3.9623 5.35489C4.52463 5.4352 5.16704 5.5691 5.83636 5.72971L6.29148 5.83672L6.6663 5.54221C7.0144 5.2744 7.41594 5.06039 7.81744 4.87288L8.24585 4.68538L8.37976 4.23026C8.56726 3.56093 8.78128 2.97192 8.99549 2.43646C9.0758 2.24896 9.1294 2.08835 9.18299 1.95464C9.2097 1.87434 10.7092 1.87434 10.7626 1.95464C10.8162 2.08854 10.8965 2.24915 10.9501 2.43646C11.1643 2.97187 11.3785 3.56093 11.5658 4.23026L11.6997 4.68538L12.1281 4.87288C12.5296 5.06038 12.9314 5.2744 13.2793 5.54221L13.6541 5.83672L14.1092 5.72971C14.7785 5.5691 15.3942 5.4619 15.9833 5.35489C16.1708 5.32819 16.3581 5.3013 16.5187 5.27459C16.599 5.27459 17.3486 6.55965 17.295 6.63997C17.2147 6.77387 17.1075 6.90778 16.9738 7.04149C16.6257 7.49661 16.1975 7.97864 15.7154 8.46046L15.3942 8.80857L15.4478 9.26369C15.5014 9.71881 15.5014 10.1472 15.4478 10.6023L15.3942 11.0575L15.7154 11.4056C16.1973 11.9143 16.599 12.3961 16.9738 12.8245C17.1077 12.9852 17.2147 13.1191 17.295 13.2261C17.3486 13.3064 16.5721 14.5914 16.5187 14.5914C16.3581 14.5647 16.1975 14.5378 15.9833 14.5111C15.4209 14.4308 14.7785 14.2969 14.1092 14.1363L13.6541 14.0293L13.2793 14.3238C12.9312 14.5916 12.5296 14.8326 12.1281 14.9932L11.6997 15.1807L11.5927 15.6625C11.4052 16.3051 11.1912 16.9208 10.977 17.4563C10.8966 17.6438 10.8431 17.8044 10.7895 17.9381C10.7627 18.0184 9.26329 18.0184 9.20989 17.9381C9.15629 17.8042 9.07598 17.6436 9.02238 17.4563C8.80818 16.9209 8.59397 16.3318 8.40665 15.6625L8.27275 15.2074L7.81763 15.0199C7.41611 14.8324 7.01439 14.6183 6.66648 14.3505L6.29167 14.056L5.83655 14.163C5.16722 14.3236 4.55149 14.4308 3.96248 14.5378C3.77498 14.5645 3.58767 14.5914 3.42707 14.6181C3.34676 14.6181 2.59715 13.3331 2.65074 13.2528C2.73105 13.1189 2.83825 12.985 2.97196 12.8512C3.32007 12.3961 3.74829 11.9141 4.2303 11.4323L4.55152 11.0842L4.49773 10.6023Z"/></symbol><symbol id="delete" viewBox="0 0 20 14"><path fill-rule="evenodd" clip-rule="evenodd" d="M5.02637 0H19.4001C19.7334 0 20 0.295819 20 0.665466V13.3345C20 13.7043 19.7333 14 19.4001 14H5.0042C4.71535 14 4.44882 13.8521 4.27107 13.6056L0.11669 7.61617C-0.0388967 7.36964 -0.0388967 7.04934 0.11669 6.80279L4.27107 0.418992C4.4488 0.147861 4.73752 0 5.02637 0ZM15 8.70496L13.705 10L12 8.29504L10.295 10L9 8.70496L10.705 7L9 5.29504L10.295 4L12 5.70496L13.705 4L15 5.29504L13.2949 7L15 8.70496Z"/></symbol><symbol id="list" viewBox="0 0 20 20"><path d="M1.5 2C0.671573 2 0 2.67157 0 3.5C0 4.32843 0.671573 5 1.5 5H2C2.82843 5 3.5 4.32843 3.5 3.5C3.5 2.67157 2.82843 2 2 2H1.5Z"/><path d="M6.5 2C5.67157 2 5 2.67157 5 3.5C5 4.32843 5.67157 5 6.5 5H18.5C19.3284 5 20 4.32843 20 3.5C20 2.67157 19.3284 2 18.5 2H6.5Z"/><path d="M5 16.5C5 15.6716 5.67157 15 6.5 15H18.5C19.3284 15 20 15.6716 20 16.5C20 17.3284 19.3284 18 18.5 18H6.5C5.67157 18 5 17.3284 5 16.5Z"/><path d="M5 10C5 9.17157 5.67157 8.5 6.5 8.5H18.5C19.3284 8.5 20 9.17157 20 10C20 10.8284 19.3284 11.5 18.5 11.5H6.5C5.67157 11.5 5 10.8284 5 10Z"/><path d="M0 16.5C0 15.6716 0.671573 15 1.5 15H2C2.82843 15 3.5 15.6716 3.5 16.5C3.5 17.3284 2.82843 18 2 18H1.5C0.671573 18 0 17.3284 0 16.5Z"/><path d="M1.5 8.5C0.671573 8.5 0 9.17157 0 10C0 10.8284 0.671573 11.5 1.5 11.5H2C2.82843 11.5 3.5 10.8284 3.5 10C3.5 9.17157 2.82843 8.5 2 8.5H1.5Z"/></symbol><symbol id="refresh" viewBox="0 0 20 20"><path d="M1.00014 16.9761C1.00014 17.5354 1.45278 17.988 2.01201 17.988C2.57127 17.988 3.02388 17.5354 3.02388 16.9761V15.7247C4.75453 17.775 7.31081 18.9732 10.0001 18.9732C14.5266 18.9732 18.3343 15.6182 18.9201 11.1182C19 10.559 18.6272 10.0798 18.068 9.9999C17.5087 9.92002 17.0295 10.2928 16.9496 10.8521V10.8786C16.497 14.3667 13.5414 16.9762 10.0267 16.9762C7.71016 16.9762 5.52666 15.8578 4.19537 13.994H6.0059C6.56516 13.994 7.01777 13.5414 7.01777 12.9821C7.01777 12.4229 6.56514 11.9703 6.0059 11.9703H2.01187C1.45261 11.9703 1 12.4229 1 12.9821L1.00014 16.9761Z"/><path d="M12.9822 6.99105C12.9822 7.5503 13.4349 8.00291 13.9941 8.00291H17.9881C18.5474 8.00291 19 7.55028 19 6.99105V2.99702C19 2.43776 18.5474 1.98515 17.9881 1.98515C17.4289 1.98515 16.9763 2.43778 16.9763 2.99702V4.24848C15.2456 2.19816 12.6893 1 10 1C5.47351 1 1.63919 4.38166 1.08002 8.85493C1.02672 9.41419 1.42623 9.89337 1.98529 9.94668C2.51778 9.99998 2.99716 9.62721 3.07704 9.09452C3.50311 5.60645 6.48528 2.97034 10 2.97034C12.3165 2.97034 14.5 4.08867 15.8313 5.97922H13.994C13.4348 6.00597 12.9821 6.4586 12.9821 6.99109L12.9822 6.99105Z"/></symbol><symbol id="share" viewBox="0 0 15 20"><path fill-rule="evenodd" clip-rule="evenodd" d="M5 6H3C1.34315 6 0 7.34315 0 9V17C0 18.6569 1.34315 20 3 20H12C13.6569 20 15 18.6569 15 17V9C15 7.34315 13.6569 6 12 6H10V7H12C13.1046 7 14 7.89543 14 9V17C14 18.1046 13.1046 19 12 19H3C1.89543 19 1 18.1046 1 17V9C1 7.89543 1.89543 7 3 7H5V6Z"/><path fill-rule="evenodd" clip-rule="evenodd" d="M7.49998 0L11.1213 3.62132L10.4142 4.32843L7.99998 1.91421V13H6.99998V1.91421L4.58577 4.32843L3.87866 3.62132L7.49998 0Z"/></symbol></svg>